<mxfile host="Electron" agent="Mozilla/5.0 (Windows NT 10.0; Win64; x64) AppleWebKit/537.36 (KHTML, like Gecko) draw.io/25.0.1 Chrome/128.0.6613.186 Electron/32.2.6 Safari/537.36" version="25.0.1">
  <diagram name="Page-1" id="QnzMwfSOhxRoQF9s-O19">
    <mxGraphModel dx="2049" dy="2294" grid="1" gridSize="10" guides="1" tooltips="1" connect="1" arrows="1" fold="1" page="1" pageScale="1" pageWidth="850" pageHeight="1100" math="0" shadow="0">
      <root>
        <mxCell id="0" />
        <mxCell id="1" parent="0" />
        <mxCell id="ohHc_laXDDFKQnmIAur8-15" value="" style="edgeStyle=orthogonalEdgeStyle;rounded=0;orthogonalLoop=1;jettySize=auto;html=1;" parent="1" source="ohHc_laXDDFKQnmIAur8-1" target="ohHc_laXDDFKQnmIAur8-14" edge="1">
          <mxGeometry relative="1" as="geometry" />
        </mxCell>
        <mxCell id="ohHc_laXDDFKQnmIAur8-1" value="Word Document" style="rounded=0;whiteSpace=wrap;html=1;" parent="1" vertex="1">
          <mxGeometry x="110" y="570" width="200" height="50" as="geometry" />
        </mxCell>
        <mxCell id="ohHc_laXDDFKQnmIAur8-23" value="" style="edgeStyle=orthogonalEdgeStyle;rounded=0;orthogonalLoop=1;jettySize=auto;html=1;" parent="1" source="ohHc_laXDDFKQnmIAur8-2" target="ohHc_laXDDFKQnmIAur8-22" edge="1">
          <mxGeometry relative="1" as="geometry" />
        </mxCell>
        <mxCell id="ohHc_laXDDFKQnmIAur8-2" value="Question" style="swimlane;fontStyle=0;childLayout=stackLayout;horizontal=1;startSize=26;fillColor=none;horizontalStack=0;resizeParent=1;resizeParentMax=0;resizeLast=0;collapsible=1;marginBottom=0;whiteSpace=wrap;html=1;" parent="1" vertex="1">
          <mxGeometry x="580" y="421" width="210" height="104" as="geometry" />
        </mxCell>
        <mxCell id="ohHc_laXDDFKQnmIAur8-3" value="+ QuestionNumber int" style="text;strokeColor=none;fillColor=none;align=left;verticalAlign=top;spacingLeft=4;spacingRight=4;overflow=hidden;rotatable=0;points=[[0,0.5],[1,0.5]];portConstraint=eastwest;whiteSpace=wrap;html=1;" parent="ohHc_laXDDFKQnmIAur8-2" vertex="1">
          <mxGeometry y="26" width="210" height="26" as="geometry" />
        </mxCell>
        <mxCell id="ohHc_laXDDFKQnmIAur8-4" value="+ IEnumerable&amp;lt;string&amp;gt; Choices" style="text;strokeColor=none;fillColor=none;align=left;verticalAlign=top;spacingLeft=4;spacingRight=4;overflow=hidden;rotatable=0;points=[[0,0.5],[1,0.5]];portConstraint=eastwest;whiteSpace=wrap;html=1;" parent="ohHc_laXDDFKQnmIAur8-2" vertex="1">
          <mxGeometry y="52" width="210" height="26" as="geometry" />
        </mxCell>
        <mxCell id="ohHc_laXDDFKQnmIAur8-5" value="+ QuestionAnswerIndex int" style="text;strokeColor=none;fillColor=none;align=left;verticalAlign=top;spacingLeft=4;spacingRight=4;overflow=hidden;rotatable=0;points=[[0,0.5],[1,0.5]];portConstraint=eastwest;whiteSpace=wrap;html=1;" parent="ohHc_laXDDFKQnmIAur8-2" vertex="1">
          <mxGeometry y="78" width="210" height="26" as="geometry" />
        </mxCell>
        <mxCell id="ohHc_laXDDFKQnmIAur8-25" value="" style="edgeStyle=orthogonalEdgeStyle;rounded=0;orthogonalLoop=1;jettySize=auto;html=1;" parent="1" source="ohHc_laXDDFKQnmIAur8-10" target="ohHc_laXDDFKQnmIAur8-24" edge="1">
          <mxGeometry relative="1" as="geometry" />
        </mxCell>
        <mxCell id="ohHc_laXDDFKQnmIAur8-10" value="Word Document Parser" style="swimlane;fontStyle=0;childLayout=stackLayout;horizontal=1;startSize=26;fillColor=none;horizontalStack=0;resizeParent=1;resizeParentMax=0;resizeLast=0;collapsible=1;marginBottom=0;whiteSpace=wrap;html=1;" parent="1" vertex="1">
          <mxGeometry x="360" y="64" width="210" height="130" as="geometry" />
        </mxCell>
        <mxCell id="ohHc_laXDDFKQnmIAur8-11" value="+ DocumentPath:string" style="text;strokeColor=none;fillColor=none;align=left;verticalAlign=top;spacingLeft=4;spacingRight=4;overflow=hidden;rotatable=0;points=[[0,0.5],[1,0.5]];portConstraint=eastwest;whiteSpace=wrap;html=1;" parent="ohHc_laXDDFKQnmIAur8-10" vertex="1">
          <mxGeometry y="26" width="210" height="26" as="geometry" />
        </mxCell>
        <mxCell id="ohHc_laXDDFKQnmIAur8-28" value="+ Writer:IWriter" style="text;strokeColor=none;fillColor=none;align=left;verticalAlign=top;spacingLeft=4;spacingRight=4;overflow=hidden;rotatable=0;points=[[0,0.5],[1,0.5]];portConstraint=eastwest;whiteSpace=wrap;html=1;" parent="ohHc_laXDDFKQnmIAur8-10" vertex="1">
          <mxGeometry y="52" width="210" height="26" as="geometry" />
        </mxCell>
        <mxCell id="ohHc_laXDDFKQnmIAur8-12" value="+Parser:QuestionParser" style="text;strokeColor=none;fillColor=none;align=left;verticalAlign=top;spacingLeft=4;spacingRight=4;overflow=hidden;rotatable=0;points=[[0,0.5],[1,0.5]];portConstraint=eastwest;whiteSpace=wrap;html=1;" parent="ohHc_laXDDFKQnmIAur8-10" vertex="1">
          <mxGeometry y="78" width="210" height="26" as="geometry" />
        </mxCell>
        <mxCell id="ohHc_laXDDFKQnmIAur8-13" value="+ Write():void" style="text;strokeColor=none;fillColor=none;align=left;verticalAlign=top;spacingLeft=4;spacingRight=4;overflow=hidden;rotatable=0;points=[[0,0.5],[1,0.5]];portConstraint=eastwest;whiteSpace=wrap;html=1;" parent="ohHc_laXDDFKQnmIAur8-10" vertex="1">
          <mxGeometry y="104" width="210" height="26" as="geometry" />
        </mxCell>
        <mxCell id="ohHc_laXDDFKQnmIAur8-62" value="" style="edgeStyle=orthogonalEdgeStyle;rounded=0;orthogonalLoop=1;jettySize=auto;html=1;" parent="1" source="ohHc_laXDDFKQnmIAur8-14" target="ohHc_laXDDFKQnmIAur8-61" edge="1">
          <mxGeometry relative="1" as="geometry" />
        </mxCell>
        <mxCell id="ohHc_laXDDFKQnmIAur8-63" value="Write To Josn File" style="edgeLabel;html=1;align=center;verticalAlign=middle;resizable=0;points=[];" parent="ohHc_laXDDFKQnmIAur8-62" vertex="1" connectable="0">
          <mxGeometry x="-0.0926" y="-1" relative="1" as="geometry">
            <mxPoint as="offset" />
          </mxGeometry>
        </mxCell>
        <mxCell id="o3CBmvJWbNKGMECV8XFy-2" value="" style="edgeStyle=orthogonalEdgeStyle;rounded=0;orthogonalLoop=1;jettySize=auto;html=1;" edge="1" parent="1" source="ohHc_laXDDFKQnmIAur8-14" target="o3CBmvJWbNKGMECV8XFy-1">
          <mxGeometry relative="1" as="geometry">
            <Array as="points">
              <mxPoint x="528" y="660" />
              <mxPoint x="438" y="660" />
            </Array>
          </mxGeometry>
        </mxCell>
        <mxCell id="o3CBmvJWbNKGMECV8XFy-5" value="For every Question" style="edgeLabel;html=1;align=center;verticalAlign=middle;resizable=0;points=[];" vertex="1" connectable="0" parent="o3CBmvJWbNKGMECV8XFy-2">
          <mxGeometry x="-0.762" y="-2" relative="1" as="geometry">
            <mxPoint as="offset" />
          </mxGeometry>
        </mxCell>
        <mxCell id="ohHc_laXDDFKQnmIAur8-14" value="Parser.Write()" style="whiteSpace=wrap;html=1;" parent="1" vertex="1">
          <mxGeometry x="450" y="570" width="155" height="50" as="geometry" />
        </mxCell>
        <mxCell id="ohHc_laXDDFKQnmIAur8-22" value="Representation of the question to pass it to the json writer" style="rounded=1;whiteSpace=wrap;html=1;fillColor=none;fontStyle=0;startSize=26;" parent="1" vertex="1">
          <mxGeometry x="625" y="260" width="120" height="60" as="geometry" />
        </mxCell>
        <mxCell id="ohHc_laXDDFKQnmIAur8-24" value="parser for reading the document for every question without loading in memory" style="rounded=1;whiteSpace=wrap;html=1;fillColor=none;fontStyle=0;startSize=26;" parent="1" vertex="1">
          <mxGeometry x="367.5" y="-82" width="155" height="82" as="geometry" />
        </mxCell>
        <mxCell id="ohHc_laXDDFKQnmIAur8-37" value="" style="edgeStyle=orthogonalEdgeStyle;rounded=0;orthogonalLoop=1;jettySize=auto;html=1;" parent="1" source="ohHc_laXDDFKQnmIAur8-30" target="ohHc_laXDDFKQnmIAur8-36" edge="1">
          <mxGeometry relative="1" as="geometry" />
        </mxCell>
        <mxCell id="ohHc_laXDDFKQnmIAur8-30" value="Question Parser" style="swimlane;fontStyle=0;childLayout=stackLayout;horizontal=1;startSize=26;fillColor=none;horizontalStack=0;resizeParent=1;resizeParentMax=0;resizeLast=0;collapsible=1;marginBottom=0;whiteSpace=wrap;html=1;" parent="1" vertex="1">
          <mxGeometry x="710" y="100" width="250" height="104" as="geometry" />
        </mxCell>
        <mxCell id="ohHc_laXDDFKQnmIAur8-32" value="+ QuestionsTable : Table" style="text;strokeColor=none;fillColor=none;align=left;verticalAlign=top;spacingLeft=4;spacingRight=4;overflow=hidden;rotatable=0;points=[[0,0.5],[1,0.5]];portConstraint=eastwest;whiteSpace=wrap;html=1;" parent="ohHc_laXDDFKQnmIAur8-30" vertex="1">
          <mxGeometry y="26" width="250" height="26" as="geometry" />
        </mxCell>
        <mxCell id="o3CBmvJWbNKGMECV8XFy-7" value="+ QuestionParser():Question (Generator)" style="text;strokeColor=none;fillColor=none;align=left;verticalAlign=top;spacingLeft=4;spacingRight=4;overflow=hidden;rotatable=0;points=[[0,0.5],[1,0.5]];portConstraint=eastwest;whiteSpace=wrap;html=1;" vertex="1" parent="ohHc_laXDDFKQnmIAur8-30">
          <mxGeometry y="52" width="250" height="26" as="geometry" />
        </mxCell>
        <mxCell id="ohHc_laXDDFKQnmIAur8-33" value="+ QuestionFormatter:IFormatter" style="text;strokeColor=none;fillColor=none;align=left;verticalAlign=top;spacingLeft=4;spacingRight=4;overflow=hidden;rotatable=0;points=[[0,0.5],[1,0.5]];portConstraint=eastwest;whiteSpace=wrap;html=1;" parent="ohHc_laXDDFKQnmIAur8-30" vertex="1">
          <mxGeometry y="78" width="250" height="26" as="geometry" />
        </mxCell>
        <mxCell id="ohHc_laXDDFKQnmIAur8-36" value="lazy generator for getting question for every time asked" style="rounded=1;whiteSpace=wrap;html=1;fillColor=none;fontStyle=0;startSize=26;" parent="1" vertex="1">
          <mxGeometry x="705" y="-85" width="120" height="60" as="geometry" />
        </mxCell>
        <mxCell id="ohHc_laXDDFKQnmIAur8-39" value="" style="edgeStyle=orthogonalEdgeStyle;rounded=0;orthogonalLoop=1;jettySize=auto;html=1;entryX=0.008;entryY=0.152;entryDx=0;entryDy=0;entryPerimeter=0;" parent="1" source="ohHc_laXDDFKQnmIAur8-12" target="ohHc_laXDDFKQnmIAur8-30" edge="1">
          <mxGeometry relative="1" as="geometry" />
        </mxCell>
        <mxCell id="ohHc_laXDDFKQnmIAur8-40" value="Json Writer" style="swimlane;fontStyle=0;childLayout=stackLayout;horizontal=1;startSize=26;fillColor=none;horizontalStack=0;resizeParent=1;resizeParentMax=0;resizeLast=0;collapsible=1;marginBottom=0;whiteSpace=wrap;html=1;" parent="1" vertex="1">
          <mxGeometry x="30" y="290" width="250" height="78" as="geometry" />
        </mxCell>
        <mxCell id="ohHc_laXDDFKQnmIAur8-41" value="+ JsonFilePath:string" style="text;strokeColor=none;fillColor=none;align=left;verticalAlign=top;spacingLeft=4;spacingRight=4;overflow=hidden;rotatable=0;points=[[0,0.5],[1,0.5]];portConstraint=eastwest;whiteSpace=wrap;html=1;" parent="ohHc_laXDDFKQnmIAur8-40" vertex="1">
          <mxGeometry y="26" width="250" height="26" as="geometry" />
        </mxCell>
        <mxCell id="ohHc_laXDDFKQnmIAur8-42" value="+ Write(Question):void" style="text;strokeColor=none;fillColor=none;align=left;verticalAlign=top;spacingLeft=4;spacingRight=4;overflow=hidden;rotatable=0;points=[[0,0.5],[1,0.5]];portConstraint=eastwest;whiteSpace=wrap;html=1;" parent="ohHc_laXDDFKQnmIAur8-40" vertex="1">
          <mxGeometry y="52" width="250" height="26" as="geometry" />
        </mxCell>
        <mxCell id="ohHc_laXDDFKQnmIAur8-48" value="" style="edgeStyle=orthogonalEdgeStyle;rounded=0;orthogonalLoop=1;jettySize=auto;html=1;entryX=0.5;entryY=0;entryDx=0;entryDy=0;" parent="1" source="ohHc_laXDDFKQnmIAur8-44" target="ohHc_laXDDFKQnmIAur8-40" edge="1">
          <mxGeometry relative="1" as="geometry" />
        </mxCell>
        <mxCell id="ohHc_laXDDFKQnmIAur8-44" value="IWriter" style="swimlane;fontStyle=1;align=center;verticalAlign=top;childLayout=stackLayout;horizontal=1;startSize=26;horizontalStack=0;resizeParent=1;resizeParentMax=0;resizeLast=0;collapsible=1;marginBottom=0;whiteSpace=wrap;html=1;" parent="1" vertex="1">
          <mxGeometry x="60" y="110" width="160" height="60" as="geometry" />
        </mxCell>
        <mxCell id="ohHc_laXDDFKQnmIAur8-46" value="" style="line;strokeWidth=1;fillColor=none;align=left;verticalAlign=middle;spacingTop=-1;spacingLeft=3;spacingRight=3;rotatable=0;labelPosition=right;points=[];portConstraint=eastwest;strokeColor=inherit;" parent="ohHc_laXDDFKQnmIAur8-44" vertex="1">
          <mxGeometry y="26" width="160" height="8" as="geometry" />
        </mxCell>
        <mxCell id="ohHc_laXDDFKQnmIAur8-47" value="+ Write(Question):void" style="text;strokeColor=none;fillColor=none;align=left;verticalAlign=top;spacingLeft=4;spacingRight=4;overflow=hidden;rotatable=0;points=[[0,0.5],[1,0.5]];portConstraint=eastwest;whiteSpace=wrap;html=1;" parent="ohHc_laXDDFKQnmIAur8-44" vertex="1">
          <mxGeometry y="34" width="160" height="26" as="geometry" />
        </mxCell>
        <mxCell id="ohHc_laXDDFKQnmIAur8-57" value="" style="edgeStyle=orthogonalEdgeStyle;rounded=0;orthogonalLoop=1;jettySize=auto;html=1;entryX=1;entryY=0.25;entryDx=0;entryDy=0;" parent="1" source="ohHc_laXDDFKQnmIAur8-28" target="ohHc_laXDDFKQnmIAur8-44" edge="1">
          <mxGeometry relative="1" as="geometry" />
        </mxCell>
        <mxCell id="ohHc_laXDDFKQnmIAur8-58" style="edgeStyle=orthogonalEdgeStyle;rounded=0;orthogonalLoop=1;jettySize=auto;html=1;entryX=0.257;entryY=-0.067;entryDx=0;entryDy=0;entryPerimeter=0;" parent="1" source="ohHc_laXDDFKQnmIAur8-42" target="ohHc_laXDDFKQnmIAur8-2" edge="1">
          <mxGeometry relative="1" as="geometry" />
        </mxCell>
        <mxCell id="ohHc_laXDDFKQnmIAur8-66" value="" style="edgeStyle=orthogonalEdgeStyle;rounded=0;orthogonalLoop=1;jettySize=auto;html=1;" parent="1" source="ohHc_laXDDFKQnmIAur8-61" target="ohHc_laXDDFKQnmIAur8-65" edge="1">
          <mxGeometry relative="1" as="geometry" />
        </mxCell>
        <mxCell id="ohHc_laXDDFKQnmIAur8-61" value="TempJsonFile" style="rounded=1;whiteSpace=wrap;html=1;" parent="1" vertex="1">
          <mxGeometry x="790" y="565" width="120" height="60" as="geometry" />
        </mxCell>
        <mxCell id="ohHc_laXDDFKQnmIAur8-65" value="DB Service To store it in the database and then remove the file" style="rounded=1;whiteSpace=wrap;html=1;" parent="1" vertex="1">
          <mxGeometry x="990" y="565" width="120" height="60" as="geometry" />
        </mxCell>
        <mxCell id="o3CBmvJWbNKGMECV8XFy-4" value="" style="edgeStyle=orthogonalEdgeStyle;rounded=0;orthogonalLoop=1;jettySize=auto;html=1;" edge="1" parent="1" source="o3CBmvJWbNKGMECV8XFy-1" target="o3CBmvJWbNKGMECV8XFy-3">
          <mxGeometry relative="1" as="geometry" />
        </mxCell>
        <mxCell id="o3CBmvJWbNKGMECV8XFy-1" value="Parse a Question From the document" style="whiteSpace=wrap;html=1;" vertex="1" parent="1">
          <mxGeometry x="400" y="700" width="155" height="50" as="geometry" />
        </mxCell>
        <mxCell id="o3CBmvJWbNKGMECV8XFy-3" value="Write The question object into json file" style="whiteSpace=wrap;html=1;" vertex="1" parent="1">
          <mxGeometry x="595" y="700" width="155" height="50" as="geometry" />
        </mxCell>
        <mxCell id="o3CBmvJWbNKGMECV8XFy-20" value="" style="edgeStyle=orthogonalEdgeStyle;rounded=0;orthogonalLoop=1;jettySize=auto;html=1;entryX=0.59;entryY=1.096;entryDx=0;entryDy=0;entryPerimeter=0;" edge="1" parent="1" source="o3CBmvJWbNKGMECV8XFy-13" target="o3CBmvJWbNKGMECV8XFy-22">
          <mxGeometry relative="1" as="geometry">
            <mxPoint x="1080" y="30" as="targetPoint" />
          </mxGeometry>
        </mxCell>
        <mxCell id="o3CBmvJWbNKGMECV8XFy-25" value="" style="edgeStyle=orthogonalEdgeStyle;rounded=0;orthogonalLoop=1;jettySize=auto;html=1;entryX=0.471;entryY=-0.002;entryDx=0;entryDy=0;entryPerimeter=0;" edge="1" parent="1" target="o3CBmvJWbNKGMECV8XFy-26">
          <mxGeometry relative="1" as="geometry">
            <mxPoint x="1129.4100000000003" y="160" as="sourcePoint" />
            <mxPoint x="1129.41" y="240" as="targetPoint" />
          </mxGeometry>
        </mxCell>
        <mxCell id="o3CBmvJWbNKGMECV8XFy-42" value="" style="edgeStyle=orthogonalEdgeStyle;rounded=0;orthogonalLoop=1;jettySize=auto;html=1;exitX=0.999;exitY=0.117;exitDx=0;exitDy=0;exitPerimeter=0;" edge="1" parent="1" source="o3CBmvJWbNKGMECV8XFy-13" target="o3CBmvJWbNKGMECV8XFy-40">
          <mxGeometry relative="1" as="geometry" />
        </mxCell>
        <mxCell id="o3CBmvJWbNKGMECV8XFy-13" value="IFormatter" style="swimlane;fontStyle=1;align=center;verticalAlign=top;childLayout=stackLayout;horizontal=1;startSize=26;horizontalStack=0;resizeParent=1;resizeParentMax=0;resizeLast=0;collapsible=1;marginBottom=0;whiteSpace=wrap;html=1;" vertex="1" parent="1">
          <mxGeometry x="1010" y="100" width="240" height="60" as="geometry" />
        </mxCell>
        <mxCell id="o3CBmvJWbNKGMECV8XFy-14" value="+ Format(TableCell,ContentType):string" style="text;strokeColor=none;fillColor=none;align=left;verticalAlign=top;spacingLeft=4;spacingRight=4;overflow=hidden;rotatable=0;points=[[0,0.5],[1,0.5]];portConstraint=eastwest;whiteSpace=wrap;html=1;" vertex="1" parent="o3CBmvJWbNKGMECV8XFy-13">
          <mxGeometry y="26" width="240" height="34" as="geometry" />
        </mxCell>
        <mxCell id="o3CBmvJWbNKGMECV8XFy-22" value="&lt;span style=&quot;color: rgba(0, 0, 0, 0); font-family: monospace; font-size: 0px; text-align: start; text-wrap: nowrap;&quot;&gt;%3CmxGraphModel%3E%3Croot%3E%3CmxCell%20id%3D%220%22%2F%3E%3CmxCell%20id%3D%221%22%20parent%3D%220%22%2F%3E%3CmxCell%20id%3D%222%22%20value%3D%22lazy%20generator%20for%20getting%20question%20for%20every%20time%20asked%22%20style%3D%22rounded%3D1%3BwhiteSpace%3Dwrap%3Bhtml%3D1%3BfillColor%3Dnone%3BfontStyle%3D0%3BstartSize%3D26%3B%22%20vertex%3D%221%22%20parent%3D%221%22%3E%3CmxGeometry%20x%3D%22705%22%20y%3D%22-85%22%20width%3D%22120%22%20height%3D%2260%22%20as%3D%22geometry%22%2F%3E%3C%2FmxCell%3E%3C%2Froot%3E%3C%2FmxGraphModel%3E&lt;/span&gt;&lt;span style=&quot;font-weight: 700;&quot;&gt;Get the Text From the word and convert it into json-friendly format&lt;/span&gt;" style="rounded=1;whiteSpace=wrap;html=1;fillColor=none;fontStyle=0;startSize=26;" vertex="1" parent="1">
          <mxGeometry x="1010" y="-71" width="120" height="60" as="geometry" />
        </mxCell>
        <mxCell id="o3CBmvJWbNKGMECV8XFy-23" style="edgeStyle=orthogonalEdgeStyle;rounded=0;orthogonalLoop=1;jettySize=auto;html=1;entryX=0.004;entryY=0.11;entryDx=0;entryDy=0;entryPerimeter=0;" edge="1" parent="1" source="ohHc_laXDDFKQnmIAur8-33" target="o3CBmvJWbNKGMECV8XFy-13">
          <mxGeometry relative="1" as="geometry" />
        </mxCell>
        <mxCell id="o3CBmvJWbNKGMECV8XFy-26" value="Content Type enum" style="swimlane;fontStyle=0;childLayout=stackLayout;horizontal=1;startSize=26;fillColor=none;horizontalStack=0;resizeParent=1;resizeParentMax=0;resizeLast=0;collapsible=1;marginBottom=0;whiteSpace=wrap;html=1;" vertex="1" parent="1">
          <mxGeometry x="1010" y="216" width="250" height="130" as="geometry" />
        </mxCell>
        <mxCell id="o3CBmvJWbNKGMECV8XFy-29" value="- Question Number" style="text;strokeColor=none;fillColor=none;align=left;verticalAlign=top;spacingLeft=4;spacingRight=4;overflow=hidden;rotatable=0;points=[[0,0.5],[1,0.5]];portConstraint=eastwest;whiteSpace=wrap;html=1;" vertex="1" parent="o3CBmvJWbNKGMECV8XFy-26">
          <mxGeometry y="26" width="250" height="26" as="geometry" />
        </mxCell>
        <mxCell id="o3CBmvJWbNKGMECV8XFy-30" value="- Question Text" style="text;strokeColor=none;fillColor=none;align=left;verticalAlign=top;spacingLeft=4;spacingRight=4;overflow=hidden;rotatable=0;points=[[0,0.5],[1,0.5]];portConstraint=eastwest;whiteSpace=wrap;html=1;" vertex="1" parent="o3CBmvJWbNKGMECV8XFy-26">
          <mxGeometry y="52" width="250" height="26" as="geometry" />
        </mxCell>
        <mxCell id="o3CBmvJWbNKGMECV8XFy-31" value="- Question Answer" style="text;strokeColor=none;fillColor=none;align=left;verticalAlign=top;spacingLeft=4;spacingRight=4;overflow=hidden;rotatable=0;points=[[0,0.5],[1,0.5]];portConstraint=eastwest;whiteSpace=wrap;html=1;" vertex="1" parent="o3CBmvJWbNKGMECV8XFy-26">
          <mxGeometry y="78" width="250" height="26" as="geometry" />
        </mxCell>
        <mxCell id="o3CBmvJWbNKGMECV8XFy-32" value="- Question Choice" style="text;strokeColor=none;fillColor=none;align=left;verticalAlign=top;spacingLeft=4;spacingRight=4;overflow=hidden;rotatable=0;points=[[0,0.5],[1,0.5]];portConstraint=eastwest;whiteSpace=wrap;html=1;" vertex="1" parent="o3CBmvJWbNKGMECV8XFy-26">
          <mxGeometry y="104" width="250" height="26" as="geometry" />
        </mxCell>
        <mxCell id="o3CBmvJWbNKGMECV8XFy-44" value="" style="edgeStyle=orthogonalEdgeStyle;rounded=0;orthogonalLoop=1;jettySize=auto;html=1;" edge="1" parent="1" source="o3CBmvJWbNKGMECV8XFy-40" target="o3CBmvJWbNKGMECV8XFy-43">
          <mxGeometry relative="1" as="geometry" />
        </mxCell>
        <mxCell id="o3CBmvJWbNKGMECV8XFy-40" value="WordFormatter" style="swimlane;fontStyle=1;align=center;verticalAlign=top;childLayout=stackLayout;horizontal=1;startSize=26;horizontalStack=0;resizeParent=1;resizeParentMax=0;resizeLast=0;collapsible=1;marginBottom=0;whiteSpace=wrap;html=1;" vertex="1" parent="1">
          <mxGeometry x="1330" y="100" width="240" height="60" as="geometry" />
        </mxCell>
        <mxCell id="o3CBmvJWbNKGMECV8XFy-41" value="+ Format(TableCell,ContentType):string" style="text;strokeColor=none;fillColor=none;align=left;verticalAlign=top;spacingLeft=4;spacingRight=4;overflow=hidden;rotatable=0;points=[[0,0.5],[1,0.5]];portConstraint=eastwest;whiteSpace=wrap;html=1;" vertex="1" parent="o3CBmvJWbNKGMECV8XFy-40">
          <mxGeometry y="26" width="240" height="34" as="geometry" />
        </mxCell>
        <mxCell id="o3CBmvJWbNKGMECV8XFy-43" value="extracts OMML (open math markup language)&amp;nbsp; and convert it to MathML to late" style="whiteSpace=wrap;html=1;verticalAlign=top;fontStyle=1;startSize=26;" vertex="1" parent="1">
          <mxGeometry x="1710" y="100" width="350" height="110" as="geometry" />
        </mxCell>
      </root>
    </mxGraphModel>
  </diagram>
</mxfile>
